# xmcd
# 
# Track frame offsets:
#     182
#     12605
#     25225
#     38962
#     51397
#     62170
#     72997
#     87322
#     101745
#     115535
#     128285
#     138735
#     151510
#     166285
#     178287
#     188815
# 
# Disc length: 2698
# 
# Revision: 9
# Processed by: cddbd v1.5.2PL0 Copyright (c) Steve Scherf et al.
# Submitted via: BonkEnc v1.0.8
# 
DISCID=da0a8810
DTITLE=Dean Martin - The Very Best Of
DYEAR=1988
DGENRE=Male Vocal
TTITLE0=Return To Me (Rittorna A Me)
TTITLE1=Angel Baby [mono]
TTITLE2=Rio Bravo
TTITLE3=I've Got My Love To Keep Me Warm
TTITLE4=Baby It's Cold Outside
TTITLE5=Buona Sera [mono]
TTITLE6=That's Amore (That's Love) [mono]
TTITLE7=Goodnight Sweetheart
TTITLE8=Volare (Nel Blu Dipinto Di Blu) [mono]
TTITLE9=Write To Me From Naples [mono]
TTITLE10=Memories Are Made Of This [mono]
TTITLE11=June In January
TTITLE12=Come Back To Sorrento [mono]
TTITLE13=Hey, Brother Pour The Wine! [mono]
TTITLE14=Cha, Cha, Cha, D'Amour (Melodie D'Amour)
TTITLE15=I Have But One Heart (Oh Marenariello)
EXTD=
EXTT0=
EXTT1=
EXTT2=
EXTT3=
EXTT4=
EXTT5=
EXTT6=
EXTT7=
EXTT8=
EXTT9=
EXTT10=
EXTT11=
EXTT12=
EXTT13=
EXTT14=
EXTT15=
PLAYORDER=
